<?xml version="1.0" encoding="UTF-8" standalone="no"?>
<!-- Created with Inkscape (http://www.inkscape.org/) -->

<svg
   xmlns:dc="http://purl.org/dc/elements/1.1/"
   xmlns:cc="http://creativecommons.org/ns#"
   xmlns:rdf="http://www.w3.org/1999/02/22-rdf-syntax-ns#"
   xmlns:svg="http://www.w3.org/2000/svg"
   xmlns="http://www.w3.org/2000/svg"
   xmlns:xlink="http://www.w3.org/1999/xlink"
   xmlns:sodipodi="http://sodipodi.sourceforge.net/DTD/sodipodi-0.dtd"
   xmlns:inkscape="http://www.inkscape.org/namespaces/inkscape"
   width="256"
   height="256"
   viewBox="0 0 256 256"
   id="svg2"
   version="1.1"
   inkscape:version="0.91 r13725"
   sodipodi:docname="mirror-redirect.svg">
  <defs
     id="defs4">
    <linearGradient
       id="linearGradient5562"
       inkscape:collect="always">
      <stop
         id="stop5564"
         offset="0"
         style="stop-color:#26356a;stop-opacity:0.72549021" />
      <stop
         id="stop5566"
         offset="1"
         style="stop-color:#282020;stop-opacity:1" />
    </linearGradient>
    <linearGradient
       inkscape:collect="always"
       id="linearGradient5510">
      <stop
         style="stop-color:#916f6f;stop-opacity:1;"
         offset="0"
         id="stop5512" />
      <stop
         style="stop-color:#916f6f;stop-opacity:0;"
         offset="1"
         id="stop5514" />
    </linearGradient>
    <linearGradient
       gradientTransform="matrix(0.74586448,0,0,-0.74923638,475.13332,1314.4481)"
       y2="666.9834"
       x2="-464.62701"
       y1="370.95309"
       x1="-464.62701"
       gradientUnits="userSpaceOnUse"
       id="rect3438-6-0-6-7-2_60_-683">
      <stop
         id="stop28604"
         style="stop-color:#000000"
         offset="0" />
      <stop
         id="stop28606"
         style="stop-color:#000000;stop-opacity:0.5882"
         offset="1" />
    </linearGradient>
    <linearGradient
       gradientTransform="matrix(0.73934547,0,0,-0.74316696,472.98924,1311.5338)"
       y2="668.63483"
       x2="-465.82321"
       y1="371.95309"
       x1="-465.82321"
       gradientUnits="userSpaceOnUse"
       id="rect3438-6-0-1-1_60_-567">
      <stop
         id="stop28610"
         style="stop-color:#000000"
         offset="0" />
      <stop
         id="stop28612"
         style="stop-color:#000000;stop-opacity:0.5882"
         offset="1" />
    </linearGradient>
    <linearGradient
       inkscape:collect="always"
       xlink:href="#linearGradient5510"
       id="linearGradient5516"
       x1="182.34"
       y1="-0.63168669"
       x2="180.43349"
       y2="91.834167"
       gradientUnits="userSpaceOnUse" />
    <linearGradient
       inkscape:collect="always"
       xlink:href="#linearGradient5562"
       id="linearGradient5560"
       gradientUnits="userSpaceOnUse"
       x1="166.48598"
       y1="-116.45232"
       x2="189.96605"
       y2="547.01404" />
  </defs>
  <sodipodi:namedview
     id="base"
     pagecolor="#ffffff"
     bordercolor="#666666"
     borderopacity="1.0"
     inkscape:pageopacity="0.0"
     inkscape:pageshadow="2"
     inkscape:zoom="1.4"
     inkscape:cx="-136.1194"
     inkscape:cy="142.64446"
     inkscape:document-units="px"
     inkscape:current-layer="layer1"
     showgrid="false"
     units="px"
     showguides="true"
     inkscape:guide-bbox="true"
     inkscape:snap-intersection-paths="false"
     inkscape:snap-midpoints="true"
     inkscape:window-width="1844"
     inkscape:window-height="1056"
     inkscape:window-x="1996"
     inkscape:window-y="-24"
     inkscape:window-maximized="0">
    <sodipodi:guide
       position="128.92857,237.85714"
       orientation="0,1"
       id="guide4147" />
    <sodipodi:guide
       position="18.214286,162.14286"
       orientation="1,0"
       id="guide4149" />
    <sodipodi:guide
       position="237.85714,66.785714"
       orientation="1,0"
       id="guide4151" />
    <sodipodi:guide
       position="198.21429,17.5"
       orientation="0,1"
       id="guide4153" />
  </sodipodi:namedview>
  <metadata
     id="metadata7">
    <rdf:RDF>
      <cc:Work
         rdf:about="">
        <dc:format>image/svg+xml</dc:format>
        <dc:type
           rdf:resource="http://purl.org/dc/dcmitype/StillImage" />
        <dc:title />
      </cc:Work>
    </rdf:RDF>
  </metadata>
  <g
     inkscape:label="Capa 1"
     inkscape:groupmode="layer"
     id="layer1"
     transform="translate(0,-796.36216)">
    <path
       style="opacity:0.45;fill:url(#rect3438-6-0-6-7-2_60_-683)"
       d="m 69.837198,814.71984 117.495012,0 c 28.04672,0 50.78307,22.91544 50.78307,51.18395 l 0,119.42899 c 0,28.26772 -22.73635,51.18392 -50.78307,51.18392 l -117.495012,0 c -28.046723,0 -50.783076,-22.9162 -50.783076,-51.18392 l 0,-119.42899 c 0,-28.26851 22.736353,-51.18395 50.783076,-51.18395 z"
       enable-background="new    "
       id="rect3438-6-0-6-7-2_27_"
       inkscape:connector-curvature="0" />
    <path
       style="opacity:0.45;fill:url(#rect3438-6-0-1-1_60_-567)"
       d="m 70.381198,814.62617 116.408512,0 c 27.81893,0 50.3717,22.77982 50.3717,50.88124 l 0,118.72238 c 0,28.10071 -22.55277,50.88121 -50.3717,50.88121 l -116.408512,0 c -27.819681,0 -50.371704,-22.7805 -50.371704,-50.88121 l 0,-118.72238 c -7.49e-4,-28.10067 22.552023,-50.88124 50.371704,-50.88124 z"
       enable-background="new    "
       id="rect3438-6-0-1-1_27_"
       inkscape:connector-curvature="0" />
    <g
       id="rect3438-6_27_"
       transform="matrix(0.74931131,0,0,0.74931131,16.22772,814.97835)"
       style="fill:url(#linearGradient5516);fill-opacity:1">
      <linearGradient
         gradientTransform="matrix(0.9996,0,0,-0.9996,-615.6744,-74.9999)"
         y2="-366.4321"
         x2="765.92767"
         y1="-75.054199"
         x1="765.92767"
         gradientUnits="userSpaceOnUse"
         id="XMLID_140_-02"
         style="fill-opacity:1;fill:url(#linearGradient5516)">
        <stop
           id="stop28617"
           style="stop-color:#4482B6;fill-opacity:1;fill:url(#linearGradient5516)"
           offset="0" />
        <stop
           id="stop28619"
           style="stop-color:#3979B2;fill-opacity:1;fill:url(#linearGradient5516)"
           offset="0.2417" />
        <stop
           id="stop28621"
           style="stop-color:#1C63A6;fill-opacity:1;fill:url(#linearGradient5516)"
           offset="0.6659" />
        <stop
           id="stop28623"
           style="stop-color:#004D9B;fill-opacity:1;fill:url(#linearGradient5516)"
           offset="1" />
      </linearGradient>
      <path
         style="fill:url(#linearGradient5560);fill-opacity:1"
         d="m 71.277,291.286 c -36.922,0 -66.96,-30.039 -66.96,-66.961 l 0,-157.34 c 0,-36.922 30.038,-66.96 66.96,-66.96 l 157.34,0 c 36.922,0 66.959,30.038 66.959,66.96 l 0,157.339 c 0,36.923 -30.038,66.961 -66.959,66.961 l -157.34,0 z"
         id="XMLID_4193_"
         inkscape:connector-curvature="0" />
      <g
         id="XMLID_4095_"
         style="fill:url(#linearGradient5516);fill-opacity:1">
        <path
           d="m 228.617,0.495 c 36.663,0 66.49,29.827 66.49,66.49 l 0,157.339 c 0,36.663 -29.827,66.491 -66.49,66.491 l -157.34,0 c -36.663,0 -66.49,-29.828 -66.49,-66.491 l 0,-157.339 c 0,-36.663 29.828,-66.49 66.49,-66.49 l 157.34,0 m 0,-0.941 -157.34,0 c -37.241,0 -67.431,30.19 -67.431,67.431 l 0,157.339 c 0,37.241 30.19,67.432 67.431,67.432 l 157.34,0 c 37.24,0 67.431,-30.191 67.431,-67.432 l 0,-157.339 c 0,-37.241 -30.191,-67.431 -67.431,-67.431 l 0,0 z"
           id="XMLID_4096_"
           inkscape:connector-curvature="0"
           style="fill:url(#linearGradient5516);fill-opacity:1" />
      </g>
    </g>
    <g
       id="XMLID_2161_"
       style="opacity:0.2"
       transform="matrix(0.74931131,0,0,0.74931131,16.22772,814.97835)">
      <g
         id="XMLID_2174_">
        <g
           id="XMLID_2175_">
          <linearGradient
             y2="39.972198"
             x2="203.3335"
             y1="55.284199"
             x1="203.3335"
             gradientUnits="userSpaceOnUse"
             id="XMLID_144_-67">
            <stop
               id="stop28632"
               style="stop-color:#000000"
               offset="0" />
            <stop
               id="stop28634"
               style="stop-color:#000000;stop-opacity:0.5882"
               offset="1" />
          </linearGradient>
          <path
             style="clip-rule:evenodd;fill:url(#XMLID_144_-67);fill-rule:evenodd"
             d="m 202.474,39.99 c -2.545,0.287 -4.225,3.939 -3.75,8.158 0.475,4.218 2.924,7.405 5.47,7.118 2.544,-0.286 4.224,-3.938 3.749,-8.156 -0.475,-4.218 -2.923,-7.406 -5.469,-7.12 z"
             id="XMLID_2179_"
             inkscape:connector-curvature="0" />
          <linearGradient
             y2="47.068802"
             x2="141.22169"
             y1="144.32809"
             x1="141.22169"
             gradientUnits="userSpaceOnUse"
             id="XMLID_157_-801">
            <stop
               id="stop28638"
               style="stop-color:#000000"
               offset="0" />
            <stop
               id="stop28640"
               style="stop-color:#000000;stop-opacity:0.5882"
               offset="1" />
          </linearGradient>
          <path
             style="clip-rule:evenodd;fill:url(#XMLID_157_-801);fill-rule:evenodd"
             d="m 202.855,59.753 c 0,0 -4.382,4.271 -10.99,9.969 -8.967,-8.596 -21.541,-13.296 -34.849,-11.798 -3.183,0.358 -6.241,1.064 -9.154,2.054 2.164,-5.84 4.247,-9.788 4.247,-9.788 0,0 -5.398,4.215 -11.904,11.619 0.434,-8.703 -0.426,-14.74 -0.426,-14.74 0,0 -6.853,16.792 -18.558,30.247 -5.604,-3.796 -12.532,-5.697 -19.784,-4.881 -16.147,1.818 -27.763,16.382 -25.945,32.527 1.817,16.147 16.381,27.764 32.528,25.946 6.483,-0.729 12.233,-3.518 16.678,-7.635 8.463,14.095 24.609,22.738 42.014,20.779 18.368,-2.068 32.745,-15.337 37.114,-32.225 7.972,-21.187 -0.94,-51.796 -0.971,-52.074 z M 158.196,89.01 c -2.308,1.674 -6.284,0.13 -8.881,-3.448 -0.146,-0.2 -0.28,-0.402 -0.411,-0.604 2.477,-1.842 3.821,-4.147 3.033,-5.322 -0.654,-0.971 -2.585,-0.875 -4.729,0.097 -0.009,-1.565 0.509,-2.904 1.579,-3.682 2.308,-1.676 6.285,-0.133 8.883,3.445 2.598,3.581 2.833,7.84 0.526,9.514 z"
             id="XMLID_2176_"
             inkscape:connector-curvature="0" />
        </g>
      </g>
      <g
         id="XMLID_2162_"
         style="opacity:0.5">
        <g
           id="XMLID_2169_">
          <linearGradient
             y2="222.7466"
             x2="221.9053"
             y1="238.0601"
             x1="221.9053"
             gradientUnits="userSpaceOnUse"
             id="XMLID_231_-96">
            <stop
               id="stop28646"
               style="stop-color:#000000"
               offset="0" />
            <stop
               id="stop28648"
               style="stop-color:#000000;stop-opacity:0.5882"
               offset="1" />
          </linearGradient>
          <path
             style="clip-rule:evenodd;fill:url(#XMLID_231_-96);fill-rule:evenodd"
             d="m 222.766,238.042 c -2.545,0.286 -4.995,-2.902 -5.47,-7.12 -0.475,-4.219 1.205,-7.872 3.75,-8.158 2.545,-0.287 4.993,2.9 5.469,7.12 0.474,4.218 -1.204,7.871 -3.749,8.158 z"
             id="XMLID_2173_"
             inkscape:connector-curvature="0" />
          <linearGradient
             y2="144.2578"
             x2="151.57761"
             y1="245.07809"
             x1="151.57761"
             gradientUnits="userSpaceOnUse"
             id="XMLID_248_-17">
            <stop
               id="stop28652"
               style="stop-color:#000000"
               offset="0" />
            <stop
               id="stop28654"
               style="stop-color:#000000;stop-opacity:0.5882"
               offset="1" />
          </linearGradient>
          <path
             style="clip-rule:evenodd;fill:url(#XMLID_248_-17);fill-rule:evenodd"
             d="m 208.111,167.702 c -8.015,-15.495 -24.982,-25.235 -43.35,-23.168 -17.405,1.96 -31.225,13.979 -36.342,29.601 -5.25,-3.025 -11.475,-4.465 -17.958,-3.735 -16.147,1.818 -27.764,16.382 -25.947,32.528 1.817,16.145 16.382,27.763 32.529,25.945 7.25,-0.816 13.582,-4.209 18.203,-9.157 14.403,10.515 24.819,25.363 24.819,25.363 0,0 -0.504,-6.076 -2.862,-14.465 7.989,5.772 14.188,8.681 14.188,8.681 0,0 -2.908,-3.386 -6.315,-8.599 3.06,0.318 6.198,0.327 9.381,-0.031 13.308,-1.499 24.523,-8.877 31.355,-19.25 7.709,4.083 12.932,7.273 12.932,7.273 -0.032,-0.279 1.851,-32.102 -10.633,-50.986 z m -37.812,41.781 c -1.738,4.067 -5.272,6.455 -7.894,5.335 -1.215,-0.521 -2.018,-1.71 -2.358,-3.239 2.307,0.472 4.21,0.136 4.632,-0.957 0.507,-1.319 -1.316,-3.268 -4.141,-4.513 0.083,-0.228 0.169,-0.455 0.267,-0.682 1.737,-4.066 5.271,-6.456 7.893,-5.336 2.62,1.121 3.338,5.325 1.601,9.392 z"
             id="XMLID_2170_"
             inkscape:connector-curvature="0" />
        </g>
      </g>
    </g>
    <g
       id="XMLID_2187_"
       transform="matrix(0.74931131,0,0,0.74931131,16.22772,813.38681)">
      <g
         id="XMLID_2188_">
        <linearGradient
           id="XMLID_279_-48"
           gradientUnits="userSpaceOnUse"
           x1="203.3335"
           y1="57.4077"
           x2="203.3335"
           y2="42.096199">
          <stop
             offset="0"
             style="stop-color:#000000"
             id="stop28661" />
          <stop
             offset="1"
             style="stop-color:#000000;stop-opacity:0.5882"
             id="stop28663" />
        </linearGradient>
        <path
           inkscape:connector-curvature="0"
           id="XMLID_2192_"
           d="m 202.474,42.114 c -2.545,0.287 -4.225,3.939 -3.75,8.157 0.475,4.218 2.924,7.405 5.47,7.118 2.544,-0.286 4.224,-3.938 3.749,-8.156 -0.475,-4.217 -2.923,-7.405 -5.469,-7.119 z"
           style="clip-rule:evenodd;fill:url(#XMLID_279_-48);fill-rule:evenodd" />
        <linearGradient
           id="XMLID_280_-07"
           gradientUnits="userSpaceOnUse"
           x1="141.22169"
           y1="146.45171"
           x2="141.22169"
           y2="49.192402">
          <stop
             offset="0"
             style="stop-color:#000000"
             id="stop28667" />
          <stop
             offset="1"
             style="stop-color:#000000;stop-opacity:0.5882"
             id="stop28669" />
        </linearGradient>
        <path
           inkscape:connector-curvature="0"
           id="XMLID_2189_"
           d="m 202.855,61.877 c 0,0 -4.382,4.271 -10.99,9.968 -8.967,-8.596 -21.541,-13.296 -34.849,-11.798 -3.183,0.358 -6.241,1.064 -9.154,2.054 2.164,-5.84 4.247,-9.788 4.247,-9.788 0,0 -5.398,4.214 -11.904,11.619 0.434,-8.703 -0.426,-14.74 -0.426,-14.74 0,0 -6.853,16.792 -18.558,30.248 -5.604,-3.796 -12.532,-5.697 -19.784,-4.881 -16.147,1.818 -27.763,16.382 -25.945,32.527 1.817,16.147 16.381,27.764 32.528,25.946 6.483,-0.729 12.233,-3.517 16.678,-7.635 8.463,14.095 24.609,22.739 42.014,20.779 18.368,-2.067 32.745,-15.336 37.114,-32.224 7.972,-21.188 -0.94,-51.797 -0.971,-52.075 z m -44.659,29.257 c -2.308,1.675 -6.284,0.131 -8.881,-3.447 -0.146,-0.2 -0.28,-0.402 -0.411,-0.604 2.477,-1.842 3.821,-4.148 3.033,-5.322 -0.654,-0.972 -2.585,-0.875 -4.729,0.097 -0.009,-1.565 0.509,-2.904 1.579,-3.681 2.308,-1.677 6.285,-0.133 8.883,3.445 2.598,3.579 2.833,7.838 0.526,9.512 z"
           style="clip-rule:evenodd;fill:url(#XMLID_280_-07);fill-rule:evenodd" />
      </g>
    </g>
    <g
       style="opacity:0.18;fill:#ffffff"
       id="XMLID_2181_"
       transform="matrix(-0.74931131,0,0,0.74931131,249.20506,813.38682)">
      <g
         id="XMLID_2182_"
         style="fill:#ffffff">
        <linearGradient
           id="XMLID_281_-125"
           gradientUnits="userSpaceOnUse"
           x1="221.9053"
           y1="240.18359"
           x2="221.9053"
           y2="224.87061">
          <stop
             offset="0"
             style="stop-color:#000000"
             id="stop28675" />
          <stop
             offset="1"
             style="stop-color:#000000;stop-opacity:0.5882"
             id="stop28677" />
        </linearGradient>
        <path
           inkscape:connector-curvature="0"
           id="XMLID_2186_"
           d="m 222.766,240.166 c -2.545,0.287 -4.995,-2.902 -5.47,-7.12 -0.475,-4.219 1.205,-7.872 3.75,-8.157 2.545,-0.288 4.993,2.9 5.469,7.119 0.474,4.218 -1.204,7.871 -3.749,8.158 z"
           style="clip-rule:evenodd;fill:#ffffff;fill-rule:evenodd" />
        <linearGradient
           id="XMLID_470_-033"
           gradientUnits="userSpaceOnUse"
           x1="151.57761"
           y1="247.20171"
           x2="151.57761"
           y2="146.38181">
          <stop
             offset="0"
             style="stop-color:#000000"
             id="stop28681" />
          <stop
             offset="1"
             style="stop-color:#000000;stop-opacity:0.5882"
             id="stop28683" />
        </linearGradient>
        <path
           inkscape:connector-curvature="0"
           id="XMLID_2183_"
           d="m 208.111,169.826 c -8.015,-15.495 -24.982,-25.236 -43.35,-23.168 -17.405,1.959 -31.225,13.979 -36.342,29.6 -5.25,-3.025 -11.475,-4.465 -17.958,-3.735 -16.147,1.818 -27.764,16.382 -25.947,32.527 1.817,16.145 16.382,27.764 32.529,25.945 7.25,-0.816 13.582,-4.209 18.203,-9.156 14.403,10.515 24.819,25.363 24.819,25.363 0,0 -0.504,-6.076 -2.862,-14.465 7.989,5.772 14.188,8.681 14.188,8.681 0,0 -2.908,-3.386 -6.315,-8.599 3.06,0.318 6.198,0.327 9.381,-0.031 13.308,-1.498 24.523,-8.877 31.355,-19.25 7.709,4.083 12.932,7.273 12.932,7.273 -0.032,-0.278 1.851,-32.102 -10.633,-50.985 z m -37.812,41.781 c -1.738,4.068 -5.272,6.456 -7.894,5.335 -1.215,-0.521 -2.018,-1.71 -2.358,-3.24 2.307,0.472 4.21,0.136 4.632,-0.957 0.507,-1.32 -1.316,-3.268 -4.141,-4.513 0.083,-0.228 0.169,-0.455 0.267,-0.681 1.737,-4.066 5.271,-6.456 7.893,-5.336 2.62,1.121 3.338,5.325 1.601,9.392 z"
           style="clip-rule:evenodd;fill:#ffffff;fill-rule:evenodd" />
      </g>
    </g>
    <g
       id="XMLID_1947_"
       transform="matrix(0.74931131,0,0,0.74931131,16.22772,814.97835)">
      <g
         id="XMLID_1984_">
        <ellipse
           style="clip-rule:evenodd;fill:#ffffff;fill-rule:evenodd"
           id="XMLID_2009_"
           transform="matrix(-0.1119,-0.9937,0.9937,-0.1119,180.8695,252.6533)"
           cx="203.334"
           cy="45.504002"
           rx="7.6859999"
           ry="4.6389999" />
        <path
           style="clip-rule:evenodd;fill:#ffffff;fill-rule:evenodd"
           inkscape:connector-curvature="0"
           id="XMLID_1985_"
           d="m 202.855,57.63 c 0,0 -4.382,4.271 -10.99,9.968 -8.967,-8.595 -21.541,-13.296 -34.849,-11.798 -3.183,0.358 -6.241,1.064 -9.154,2.054 2.164,-5.84 4.247,-9.788 4.247,-9.788 0,0 -5.398,4.214 -11.904,11.619 0.434,-8.703 -0.426,-14.74 -0.426,-14.74 0,0 -6.853,16.792 -18.558,30.247 -5.604,-3.796 -12.532,-5.697 -19.784,-4.881 -16.147,1.818 -27.763,16.382 -25.945,32.527 1.817,16.146 16.381,27.763 32.528,25.945 6.483,-0.729 12.233,-3.517 16.678,-7.635 8.463,14.095 24.609,22.739 42.014,20.779 18.368,-2.067 32.745,-15.336 37.114,-32.224 7.972,-21.187 -0.94,-51.796 -0.971,-52.073 z m -44.659,29.256 c -2.308,1.674 -6.284,0.131 -8.881,-3.448 -0.146,-0.2 -0.28,-0.401 -0.411,-0.604 2.477,-1.842 3.821,-4.147 3.033,-5.321 -0.654,-0.972 -2.585,-0.875 -4.729,0.097 -0.009,-1.565 0.509,-2.904 1.579,-3.681 2.308,-1.677 6.285,-0.133 8.883,3.445 2.598,3.579 2.833,7.839 0.526,9.512 z" />
      </g>
    </g>
    <g
       style="opacity:0.5"
       id="XMLID_969_"
       transform="matrix(-0.74931131,0,0,0.74931131,249.21596,818.97839)">
      <g
         id="XMLID_970_">
        <ellipse
           style="clip-rule:evenodd;fill:#ffffff;fill-rule:evenodd"
           id="XMLID_995_"
           transform="matrix(0.1119,0.9937,-0.9937,0.1119,423.9299,-17.7692)"
           cx="221.90601"
           cy="228.27901"
           rx="7.6869998"
           ry="4.6389999" />
        <path
           style="clip-rule:evenodd;fill:#ffffff;fill-rule:evenodd"
           inkscape:connector-curvature="0"
           id="XMLID_971_"
           d="m 208.111,165.578 c -8.015,-15.495 -24.982,-25.236 -43.35,-23.169 -17.405,1.96 -31.225,13.979 -36.342,29.601 -5.25,-3.025 -11.475,-4.465 -17.958,-3.735 -16.147,1.818 -27.764,16.382 -25.947,32.527 1.817,16.145 16.382,27.763 32.529,25.945 7.25,-0.816 13.582,-4.209 18.203,-9.157 14.403,10.515 24.819,25.363 24.819,25.363 0,0 -0.504,-6.076 -2.862,-14.465 7.989,5.772 14.188,8.681 14.188,8.681 0,0 -2.908,-3.386 -6.315,-8.599 3.06,0.318 6.198,0.327 9.381,-0.031 13.308,-1.498 24.523,-8.877 31.355,-19.25 7.709,4.083 12.932,7.273 12.932,7.273 -0.032,-0.277 1.851,-32.1 -10.633,-50.984 z m -37.812,41.781 c -1.738,4.068 -5.272,6.455 -7.894,5.335 -1.215,-0.521 -2.018,-1.71 -2.358,-3.24 2.307,0.472 4.21,0.136 4.632,-0.957 0.507,-1.319 -1.316,-3.268 -4.141,-4.513 0.083,-0.228 0.169,-0.455 0.267,-0.681 1.737,-4.066 5.271,-6.456 7.893,-5.336 2.62,1.121 3.338,5.325 1.601,9.392 z" />
      </g>
    </g>
    <g
       id="XMLID_3164_-1"
       transform="matrix(0.74931131,0,0,0.74931131,16.22772,814.97835)" />
    <g
       style="display:none"
       id="Capa_2-55"
       display="none"
       transform="matrix(0.74931131,0,0,0.74931131,16.22772,814.97835)" />
    <g
       style="display:none"
       id="Capa_3-81"
       display="none"
       transform="matrix(0.74931131,0,0,0.74931131,16.22772,814.97835)">
      <g
         style="display:inline"
         id="XMLID_526_"
         display="inline">
        <g
           id="XMLID_2808_">
          <path
             style="fill:#d60523"
             inkscape:connector-curvature="0"
             id="XMLID_2656_"
             d="M 99.367,-37.014 C 64.438,-30.644 43.926,2.737 29.11,31.972 10.311,69.066 -7.168,109.325 -9.284,151.416 c -0.989,19.686 1.907,39.477 9.747,57.63 7.434,17.212 19.215,32.231 33.061,44.76 29.344,26.554 68.556,45.518 107.354,52.89 36.185,6.875 72.724,1.276 104.852,-16.829 29.867,-16.831 54.607,-42.995 69.537,-73.874 31.053,-64.228 13.397,-142.654 -33.606,-194.341 -51.628,-56.771 -135.719,-74.117 -208,-52.576 -8.724,2.6 -17.241,5.797 -25.566,9.473 -1.763,0.778 -0.238,3.364 1.514,2.59 67.707,-29.891 152.61,-23.166 210.755,24.407 53.043,43.399 81.03,118.702 61.367,185.496 C 302.946,254.855 241.577,305.819 174.17,306.73 133.668,307.277 93.215,291.73 59.578,269.931 27.654,249.242 1.845,219.563 -4.687,181.132 -11.637,140.246 1.98,98.453 18.384,61.466 25.807,44.728 33.775,28.002 43.373,12.384 c 8.868,-14.43 19.664,-28.506 34.154,-37.68 6.949,-4.399 14.551,-7.352 22.638,-8.827 1.897,-0.344 1.093,-3.235 -0.798,-2.891 l 0,0 z" />
        </g>
      </g>
    </g>
  </g>
</svg>
